<svg width="40" height="40" viewBox="0 0 40 40" fill="none" xmlns="http://www.w3.org/2000/svg">
<rect width="40" height="40" rx="20" fill="#ddd"/>
<path d="M24.2251 10H15.7749C12.5902 10 10 12.5902 10 15.7749V24.2251C10 27.4098 12.5902 30 15.7749 30H24.2251C27.4098 30 30 27.4098 30 24.2251V15.7608C30 12.5761 27.4098 10 24.2251 10ZM28.1599 24.3666C28.1599 26.4756 26.4473 28.2024 24.3241 28.2024H15.6759C13.5669 28.2024 11.8401 26.4897 11.8401 24.3666V15.7183C11.8401 13.6093 13.5527 11.8825 15.6759 11.8825H24.3241C26.4331 11.8825 28.1599 13.5952 28.1599 15.7183V24.3666Z" fill="#393939"/>
<path d="M20.0076 14.8555C17.1485 14.8555 14.8271 17.1768 14.8271 20.0359C14.8271 22.8951 17.1485 25.2164 20.0076 25.2164C22.8668 25.2164 25.1881 22.8951 25.1881 20.0359C25.1881 17.1768 22.8668 14.8555 20.0076 14.8555ZM20.0076 23.4047C18.1534 23.4047 16.6389 21.9043 16.6389 20.0359C16.6389 18.1817 18.1393 16.6814 20.0076 16.6814C21.8618 16.6814 23.3763 18.1817 23.3763 20.0501C23.3622 21.9043 21.8618 23.4047 20.0076 23.4047Z" fill="#393939"/>
<path d="M25.3574 15.8603C26.0219 15.8603 26.5605 15.3217 26.5605 14.6572C26.5605 13.9928 26.0219 13.4541 25.3574 13.4541C24.6929 13.4541 24.1543 13.9928 24.1543 14.6572C24.1543 15.3217 24.6929 15.8603 25.3574 15.8603Z" fill="#393939"/>
</svg>
